<?xml version="1.0" standalone="no"?>
<!DOCTYPE svg PUBLIC "-//W3C//DTD SVG 20010904//EN"
 "http://www.w3.org/TR/2001/REC-SVG-20010904/DTD/svg10.dtd">
<svg version="1.0" xmlns="http://www.w3.org/2000/svg"
 width="333.000000pt" height="333.000000pt" viewBox="0 0 333.000000 333.000000"
 preserveAspectRatio="xMidYMid meet">
<metadata>
Created by potrace 1.11, written by Peter Selinger 2001-2013
</metadata>
<g transform="translate(0.000000,333.000000) scale(0.100000,-0.100000)"
fill="#000000" stroke="none">
<path d="M1615 3299 c-16 -11 -93 -56 -170 -100 -77 -44 -149 -86 -160 -92
-55 -33 -94 -56 -137 -80 -25 -14 -106 -60 -180 -103 -73 -42 -191 -111 -263
-152 -71 -41 -198 -115 -282 -163 -84 -49 -156 -89 -161 -89 -37 0 -37 -10
-37 -861 l0 -828 190 -109 c104 -61 305 -176 445 -258 140 -81 271 -156 290
-167 29 -16 180 -103 320 -185 19 -11 58 -33 85 -48 28 -14 62 -35 78 -46 l27
-20 98 55 c118 66 758 436 892 515 19 12 46 27 60 35 14 7 109 62 212 121
l187 107 -1 832 0 832 -355 205 c-195 113 -376 217 -402 231 -26 14 -116 67
-201 116 -85 50 -173 101 -195 113 -22 13 -53 31 -70 41 -16 11 -37 22 -45 26
-8 4 -48 26 -88 50 -82 48 -94 50 -137 22z"/>
</g>
</svg>
